<svg xmlns="http://www.w3.org/2000/svg" xmlns:xlink="http://www.w3.org/1999/xlink" width="500" zoomAndPan="magnify" viewBox="0 0 375 374.999991" height="500" preserveAspectRatio="xMidYMid meet" version="1.0"><defs><g/><clipPath id="9c71d0c1c8"><path d="M 255.425781 136.046875 L 340.175781 136.046875 L 340.175781 220.796875 L 255.425781 220.796875 Z M 255.425781 136.046875 " clip-rule="nonzero"/></clipPath><clipPath id="533e28dbdd"><path d="M 181.839844 136.046875 L 266.589844 136.046875 L 266.589844 220.796875 L 181.839844 220.796875 Z M 181.839844 136.046875 " clip-rule="nonzero"/></clipPath><clipPath id="bcda4ea965"><path d="M 108.253906 136.046875 L 193.003906 136.046875 L 193.003906 220.796875 L 108.253906 220.796875 Z M 108.253906 136.046875 " clip-rule="nonzero"/></clipPath><clipPath id="16b89402b9"><path d="M 34.667969 136.046875 L 119.417969 136.046875 L 119.417969 220.796875 L 34.667969 220.796875 Z M 34.667969 136.046875 " clip-rule="nonzero"/></clipPath></defs><g clip-path="url(#9c71d0c1c8)"><path fill="#d1cf11" d="M 297.800781 136.046875 C 274.398438 136.046875 255.425781 155.019531 255.425781 178.421875 C 255.425781 201.824219 274.398438 220.796875 297.800781 220.796875 C 321.203125 220.796875 340.175781 201.824219 340.175781 178.421875 C 340.175781 155.019531 321.203125 136.046875 297.800781 136.046875 " fill-opacity="1" fill-rule="nonzero"/></g><g clip-path="url(#533e28dbdd)"><path fill="#4da4e0" d="M 224.214844 136.046875 C 200.8125 136.046875 181.839844 155.019531 181.839844 178.421875 C 181.839844 201.824219 200.8125 220.796875 224.214844 220.796875 C 247.617188 220.796875 266.589844 201.824219 266.589844 178.421875 C 266.589844 155.019531 247.617188 136.046875 224.214844 136.046875 " fill-opacity="1" fill-rule="nonzero"/></g><g clip-path="url(#bcda4ea965)"><path fill="#ee217f" d="M 150.628906 136.046875 C 127.226562 136.046875 108.253906 155.019531 108.253906 178.421875 C 108.253906 201.824219 127.226562 220.796875 150.628906 220.796875 C 174.03125 220.796875 193.003906 201.824219 193.003906 178.421875 C 193.003906 155.019531 174.03125 136.046875 150.628906 136.046875 " fill-opacity="1" fill-rule="nonzero"/></g><g clip-path="url(#16b89402b9)"><path fill="#723fa3" d="M 77.042969 136.046875 C 53.640625 136.046875 34.667969 155.019531 34.667969 178.421875 C 34.667969 201.824219 53.640625 220.796875 77.042969 220.796875 C 100.445312 220.796875 119.417969 201.824219 119.417969 178.421875 C 119.417969 155.019531 100.445312 136.046875 77.042969 136.046875 " fill-opacity="1" fill-rule="nonzero"/></g><g fill="#ffffff" fill-opacity="1"><g transform="translate(59.064573, 194.898986)"><g><path d="M 34.578125 -37.09375 C 33.210938 -33.164062 31.914062 -29.53125 30.6875 -26.1875 C 29.457031 -22.851562 28.253906 -19.6875 27.078125 -16.6875 C 25.898438 -13.695312 24.726562 -10.835938 23.5625 -8.109375 C 22.40625 -5.378906 21.222656 -2.675781 20.015625 0 L 15.140625 0 C 13.929688 -2.675781 12.742188 -5.378906 11.578125 -8.109375 C 10.421875 -10.835938 9.242188 -13.695312 8.046875 -16.6875 C 6.859375 -19.6875 5.640625 -22.851562 4.390625 -26.1875 C 3.140625 -29.53125 1.851562 -33.164062 0.53125 -37.09375 L 6.265625 -37.09375 C 8.191406 -31.445312 10.082031 -26.019531 11.9375 -20.8125 C 13.789062 -15.601562 15.695312 -10.71875 17.65625 -6.15625 C 19.625 -10.6875 21.535156 -15.5625 23.390625 -20.78125 C 25.242188 -26.007812 27.113281 -31.445312 29 -37.09375 Z M 34.578125 -37.09375 "/></g></g></g><g fill="#ffffff" fill-opacity="1"><g transform="translate(142.905998, 194.898986)"><g><path d="M 4.609375 -37.09375 L 9.796875 -37.09375 L 9.796875 0 L 4.609375 0 Z M 4.609375 -37.09375 "/></g></g></g><g fill="#ffffff" fill-opacity="1"><g transform="translate(206.802119, 194.898986)"><g><path d="M 34.578125 -37.09375 C 33.210938 -33.164062 31.914062 -29.53125 30.6875 -26.1875 C 29.457031 -22.851562 28.253906 -19.6875 27.078125 -16.6875 C 25.898438 -13.695312 24.726562 -10.835938 23.5625 -8.109375 C 22.40625 -5.378906 21.222656 -2.675781 20.015625 0 L 15.140625 0 C 13.929688 -2.675781 12.742188 -5.378906 11.578125 -8.109375 C 10.421875 -10.835938 9.242188 -13.695312 8.046875 -16.6875 C 6.859375 -19.6875 5.640625 -22.851562 4.390625 -26.1875 C 3.140625 -29.53125 1.851562 -33.164062 0.53125 -37.09375 L 6.265625 -37.09375 C 8.191406 -31.445312 10.082031 -26.019531 11.9375 -20.8125 C 13.789062 -15.601562 15.695312 -10.71875 17.65625 -6.15625 C 19.625 -10.6875 21.535156 -15.5625 23.390625 -20.78125 C 25.242188 -26.007812 27.113281 -31.445312 29 -37.09375 Z M 34.578125 -37.09375 "/></g></g></g><g fill="#ffffff" fill-opacity="1"><g transform="translate(280.858403, 194.898986)"><g><path d="M 29.375 0 C 28.769531 -1.601562 28.195312 -3.179688 27.65625 -4.734375 C 27.125 -6.285156 26.578125 -7.863281 26.015625 -9.46875 L 9.203125 -9.46875 L 5.828125 0 L 0.421875 0 C 1.847656 -3.925781 3.1875 -7.554688 4.4375 -10.890625 C 5.6875 -14.222656 6.910156 -17.390625 8.109375 -20.390625 C 9.304688 -23.390625 10.492188 -26.253906 11.671875 -28.984375 C 12.847656 -31.710938 14.078125 -34.414062 15.359375 -37.09375 L 20.125 -37.09375 C 21.40625 -34.414062 22.632812 -31.710938 23.8125 -28.984375 C 24.988281 -26.253906 26.175781 -23.390625 27.375 -20.390625 C 28.570312 -17.390625 29.789062 -14.222656 31.03125 -10.890625 C 32.28125 -7.554688 33.617188 -3.925781 35.046875 0 Z M 24.515625 -13.75 C 23.367188 -16.851562 22.234375 -19.859375 21.109375 -22.765625 C 19.984375 -25.671875 18.816406 -28.460938 17.609375 -31.140625 C 16.359375 -28.460938 15.171875 -25.671875 14.046875 -22.765625 C 12.921875 -19.859375 11.804688 -16.851562 10.703125 -13.75 Z M 24.515625 -13.75 "/></g></g></g><g fill="#ffffff" fill-opacity="1"><g transform="translate(86.707653, 247.890541)"><g><path d="M 4.730469 0 L 5.777344 0 L 10.21875 -11.929688 L 10.238281 -11.929688 L 14.699219 0 L 15.742188 0 L 20.386719 -12.613281 L 19.59375 -12.613281 L 15.222656 -0.738281 L 15.203125 -0.738281 L 10.777344 -12.613281 L 9.660156 -12.613281 L 5.273438 -0.738281 L 5.253906 -0.738281 L 0.863281 -12.613281 L 0.0898438 -12.613281 Z M 4.730469 0 "/></g></g></g><g fill="#ffffff" fill-opacity="1"><g transform="translate(112.57834, 247.890541)"><g><path d="M 11.894531 0.359375 C 12.523438 0.359375 13.082031 0.0546875 13.476562 -0.539062 L 13.007812 -1.027344 C 12.703125 -0.558594 12.359375 -0.324219 11.945312 -0.324219 C 11.351562 -0.324219 11.101562 -0.773438 10.902344 -1.421875 L 10.238281 -3.597656 C 9.949219 -4.535156 9.535156 -5.289062 8.816406 -5.703125 L 8.816406 -5.722656 C 11.03125 -5.917969 12.46875 -7.285156 12.46875 -9.140625 C 12.46875 -11.210938 10.757812 -12.613281 8.242188 -12.613281 L 0.988281 -12.613281 L 0.988281 0 L 1.726562 0 L 1.726562 -5.59375 L 7.195312 -5.59375 C 8.511719 -5.59375 9.121094 -4.714844 9.464844 -3.5625 L 10.164062 -1.3125 C 10.472656 -0.34375 10.921875 0.359375 11.894531 0.359375 Z M 1.726562 -6.296875 L 1.726562 -11.910156 L 8.222656 -11.910156 C 10.292969 -11.910156 11.714844 -10.777344 11.714844 -9.105469 C 11.714844 -7.429688 10.292969 -6.296875 8.222656 -6.296875 Z M 1.726562 -6.296875 "/></g></g></g><g fill="#ffffff" fill-opacity="1"><g transform="translate(131.451571, 247.890541)"><g><path d="M 0.988281 0 L 11.480469 0 L 11.480469 -0.703125 L 1.726562 -0.703125 L 1.726562 -6.207031 L 10.578125 -6.207031 L 10.578125 -6.910156 L 1.726562 -6.910156 L 1.726562 -11.910156 L 11.300781 -11.910156 L 11.300781 -12.613281 L 0.988281 -12.613281 Z M 0.988281 0 "/></g></g></g><g fill="#ffffff" fill-opacity="1"><g transform="translate(148.723846, 247.890541)"><g><path d="M 0.144531 0 L 0.9375 0 L 2.464844 -3.273438 L 10.527344 -3.273438 L 12.054688 0 L 12.847656 0 L 6.945312 -12.613281 L 6.046875 -12.613281 Z M 2.769531 -3.976562 L 6.476562 -11.929688 L 6.511719 -11.929688 L 10.21875 -3.976562 Z M 2.769531 -3.976562 "/></g></g></g><g fill="#ffffff" fill-opacity="1"><g transform="translate(167.111387, 247.890541)"><g><path d="M 5.488281 0 L 6.226562 0 L 6.226562 -11.910156 L 11.570312 -11.910156 L 11.570312 -12.613281 L 0.144531 -12.613281 L 0.144531 -11.910156 L 5.488281 -11.910156 Z M 5.488281 0 "/></g></g></g><g fill="#ffffff" fill-opacity="1"><g transform="translate(184.203767, 247.890541)"><g><path d="M 0.988281 0 L 1.726562 0 L 1.726562 -6.226562 L 11.40625 -6.226562 L 11.40625 0 L 12.144531 0 L 12.144531 -12.613281 L 11.40625 -12.613281 L 11.40625 -6.925781 L 1.726562 -6.925781 L 1.726562 -12.613281 L 0.988281 -12.613281 Z M 0.988281 0 "/></g></g></g><g fill="#ffffff" fill-opacity="1"><g transform="translate(202.735218, 247.890541)"><g><path d="M 6.765625 0.449219 C 10.003906 0.449219 12.074219 -1.042969 12.074219 -3.3125 C 12.074219 -5.074219 10.796875 -6.117188 8.042969 -6.640625 L 5.019531 -7.234375 C 2.914062 -7.628906 2.03125 -8.3125 2.03125 -9.535156 C 2.03125 -11.246094 3.542969 -12.359375 5.917969 -12.359375 C 8.0625 -12.359375 9.769531 -11.226562 10.328125 -9.5 L 10.992188 -9.769531 C 10.363281 -11.765625 8.382812 -13.0625 5.917969 -13.0625 C 3.113281 -13.0625 1.296875 -11.660156 1.296875 -9.464844 C 1.296875 -7.898438 2.394531 -6.980469 4.839844 -6.511719 L 7.878906 -5.9375 C 10.292969 -5.453125 11.335938 -4.640625 11.335938 -3.238281 C 11.335938 -1.4375 9.554688 -0.25 6.765625 -0.25 C 3.707031 -0.25 1.457031 -1.816406 1.042969 -4.191406 L 0.359375 -3.941406 C 0.882812 -1.277344 3.402344 0.449219 6.765625 0.449219 Z M 6.765625 0.449219 "/></g></g></g><g fill="#ffffff" fill-opacity="1"><g transform="translate(220.565124, 247.890541)"><g><path d="M 1.347656 0.179688 C 1.726562 0.179688 1.980469 -0.0898438 1.980469 -0.449219 C 1.980469 -0.808594 1.726562 -1.078125 1.347656 -1.078125 C 0.953125 -1.078125 0.703125 -0.808594 0.703125 -0.449219 C 0.703125 -0.0703125 0.953125 0.179688 1.347656 0.179688 Z M 1.347656 0.179688 "/></g></g></g><g fill="#ffffff" fill-opacity="1"><g transform="translate(228.663352, 247.890541)"><g><path d="M 8.0625 0.449219 C 11.605469 0.449219 14.320312 -1.601562 15.042969 -4.839844 L 14.339844 -5.039062 C 13.691406 -2.105469 11.246094 -0.25 8.0625 -0.25 C 3.996094 -0.25 1.421875 -2.609375 1.421875 -6.296875 C 1.421875 -10.003906 3.777344 -12.359375 7.558594 -12.359375 C 10.238281 -12.359375 12.398438 -10.8125 13.0625 -8.347656 L 13.765625 -8.5625 C 13.007812 -11.316406 10.578125 -13.0625 7.558594 -13.0625 C 3.328125 -13.0625 0.683594 -10.4375 0.683594 -6.296875 C 0.683594 -2.175781 3.542969 0.449219 8.0625 0.449219 Z M 8.0625 0.449219 "/></g></g></g><g fill="#ffffff" fill-opacity="1"><g transform="translate(249.623227, 247.890541)"><g><path d="M 8.257812 0.449219 C 12.847656 0.449219 15.871094 -2.25 15.871094 -6.296875 C 15.871094 -10.363281 12.847656 -13.0625 8.257812 -13.0625 C 3.6875 -13.0625 0.683594 -10.363281 0.683594 -6.296875 C 0.683594 -2.25 3.6875 0.449219 8.257812 0.449219 Z M 8.257812 -0.25 C 4.136719 -0.25 1.421875 -2.664062 1.421875 -6.296875 C 1.421875 -9.949219 4.136719 -12.359375 8.257812 -12.359375 C 12.398438 -12.359375 15.113281 -9.949219 15.113281 -6.296875 C 15.113281 -2.664062 12.398438 -0.25 8.257812 -0.25 Z M 8.257812 -0.25 "/></g></g></g><g fill="#ffffff" fill-opacity="1"><g transform="translate(271.554466, 247.890541)"><g><path d="M 0.988281 0 L 1.726562 0 L 1.726562 -11.785156 L 1.761719 -11.785156 L 7.933594 0 L 8.796875 0 L 14.96875 -11.785156 L 15.003906 -11.785156 L 15.003906 0 L 15.742188 0 L 15.742188 -12.613281 L 14.574219 -12.613281 L 8.367188 -0.792969 L 8.347656 -0.792969 L 2.160156 -12.613281 L 0.988281 -12.613281 Z M 0.988281 0 "/></g></g></g></svg>